<?xml version="1.0" encoding="UTF-8" standalone="no"?>
<svg
   xmlns:dc="http://purl.org/dc/elements/1.1/"
   xmlns:cc="http://creativecommons.org/ns#"
   xmlns:rdf="http://www.w3.org/1999/02/22-rdf-syntax-ns#"
   xmlns:svg="http://www.w3.org/2000/svg"
   xmlns="http://www.w3.org/2000/svg"
   xmlns:sodipodi="http://sodipodi.sourceforge.net/DTD/sodipodi-0.dtd"
   xmlns:inkscape="http://www.inkscape.org/namespaces/inkscape"
   viewBox="0 0 40 40"
   id="svg5262"
   version="1.1"
   inkscape:version="0.91+devel r14091 custom"
   width="100%"
   height="100%"
   sodipodi:docname="grid-selection-unchecked.svg">
  <metadata
     id="metadata5276">
    <rdf:RDF>
      <cc:Work
         rdf:about="">
        <dc:format>image/svg+xml</dc:format>
        <dc:type
           rdf:resource="http://purl.org/dc/dcmitype/StillImage" />
        <dc:title></dc:title>
      </cc:Work>
    </rdf:RDF>
  </metadata>
  <defs
     id="defs5274" />
  <sodipodi:namedview
     pagecolor="#ffffff"
     bordercolor="#666666"
     borderopacity="1"
     objecttolerance="10"
     gridtolerance="10"
     guidetolerance="10"
     inkscape:pageopacity="0"
     inkscape:pageshadow="2"
     inkscape:window-width="960"
     inkscape:window-height="1008"
     id="namedview5272"
     showgrid="true"
     inkscape:zoom="7.271289"
     inkscape:cx="0.59204618"
     inkscape:cy="29.250298"
     inkscape:window-x="960"
     inkscape:window-y="32"
     inkscape:window-maximized="0"
     inkscape:current-layer="svg5262">
    <inkscape:grid
       type="xygrid"
       id="grid3342" />
  </sodipodi:namedview>
  <rect
     style="fill:#000000;fill-opacity:0.2"
     id="rect4192"
     width="40"
     height="40"
     x="0"
     y="0"
     rx="6"
     ry="6" />
  <path
     style="opacity:1;fill:#f5f5f5;fill-opacity:1;stroke:none;stroke-width:0;stroke-linecap:butt;stroke-linejoin:miter;stroke-miterlimit:0;stroke-dasharray:none;stroke-opacity:1"
     d="M 8,4 C 5.784,4 4,5.784 4,8 l 0,24 c 0,2.216 1.784,4 4,4 l 24,0 c 2.216,0 4,-1.784 4,-4 L 36,8 C 36,5.784 34.216,4 32,4 L 8,4 Z M 29.019531,10 32,12.59375 17.394531,30 8,21.232422 10.585938,18.310547 17.058594,24.345703 29.019531,10 Z"
     id="rect4135"
     inkscape:connector-curvature="0" />
  <path
     style="opacity:1;fill:#ffffff;fill-opacity:0.2;stroke:none;stroke-width:0;stroke-linecap:butt;stroke-linejoin:miter;stroke-miterlimit:0;stroke-dasharray:none;stroke-opacity:1"
     d="M 8 4 C 5.784 4 4 5.784 4 8 L 4 9 C 4 6.784 5.784 5 8 5 L 32 5 C 34.216 5 36 6.784 36 9 L 36 8 C 36 5.784 34.216 4 32 4 L 8 4 z "
     id="rect4191" />
  <path
     id="path4196"
     d="M 8,36 C 5.784,36 4,34.216 4,32 l 0,-1 c 0,2.216 1.784,4 4,4 l 24,0 c 2.216,0 4,-1.784 4,-4 l 0,1 c 0,2.216 -1.784,4 -4,4 L 8,36 Z"
     style="opacity:1;fill:#000000;fill-opacity:0.2;stroke:none;stroke-width:0;stroke-linecap:butt;stroke-linejoin:miter;stroke-miterlimit:0;stroke-dasharray:none;stroke-opacity:1"
     inkscape:connector-curvature="0" />
</svg>
