<?xml version="1.0" encoding="UTF-8" standalone="no"?>
<!-- Generator: Adobe Illustrator 13.0.2, SVG Export Plug-In . SVG Version: 6.00 Build 14948)  -->

<svg
   xmlns:dc="http://purl.org/dc/elements/1.1/"
   xmlns:cc="http://creativecommons.org/ns#"
   xmlns:rdf="http://www.w3.org/1999/02/22-rdf-syntax-ns#"
   xmlns:svg="http://www.w3.org/2000/svg"
   xmlns="http://www.w3.org/2000/svg"
   xmlns:sodipodi="http://sodipodi.sourceforge.net/DTD/sodipodi-0.dtd"
   xmlns:inkscape="http://www.inkscape.org/namespaces/inkscape"
   version="1.0"
   id="Foreground"
   x="0px"
   y="0px"
   width="32"
   height="32"
   viewBox="0 0 23.272727 23.272727"
   enable-background="new 0 0 16 16"
   xml:space="preserve"
   sodipodi:version="0.32"
   inkscape:version="0.91 r13725"
   sodipodi:docname="close-window.svg"
   inkscape:output_extension="org.inkscape.output.svg.inkscape"><metadata
     id="metadata2399"><rdf:RDF><cc:Work
         rdf:about=""><dc:format>image/svg+xml</dc:format><dc:type
           rdf:resource="http://purl.org/dc/dcmitype/StillImage" /><dc:title /></cc:Work></rdf:RDF></metadata><defs
     id="defs2397"><linearGradient
       id="linearGradient3173"><stop
         style="stop-color:#c4c4c4;stop-opacity:1;"
         offset="0"
         id="stop3175" /><stop
         style="stop-color:#ffffff;stop-opacity:1;"
         offset="1"
         id="stop3177" /></linearGradient><inkscape:perspective
       sodipodi:type="inkscape:persp3d"
       inkscape:vp_x="0 : 8 : 1"
       inkscape:vp_y="0 : 1000 : 0"
       inkscape:vp_z="16 : 8 : 1"
       inkscape:persp3d-origin="8 : 5.3333333 : 1"
       id="perspective2401" /><filter
       inkscape:collect="always"
       style="color-interpolation-filters:sRGB"
       id="filter4210"
       x="-0.060000053"
       width="1.1200001"
       y="-0.059999947"
       height="1.1199999"><feGaussianBlur
         inkscape:collect="always"
         stdDeviation="0.18181801"
         id="feGaussianBlur4212" /></filter></defs><sodipodi:namedview
     inkscape:window-height="1017"
     inkscape:window-width="1920"
     inkscape:pageshadow="2"
     inkscape:pageopacity="0"
     guidetolerance="10.0"
     gridtolerance="10.0"
     objecttolerance="10.0"
     borderopacity="1.0"
     bordercolor="#666666"
     pagecolor="#000000"
     id="base"
     showgrid="true"
     inkscape:zoom="5.6568542"
     inkscape:cx="-22.933141"
     inkscape:cy="36.424114"
     inkscape:window-x="0"
     inkscape:window-y="27"
     inkscape:current-layer="Foreground"
     showguides="true"
     inkscape:guide-bbox="true"
     borderlayer="true"
     inkscape:showpageshadow="false"
     inkscape:window-maximized="1"><inkscape:grid
       type="xygrid"
       id="grid11246"
       empspacing="5"
       visible="true"
       enabled="true"
       snapvisiblegridlinesonly="true" /></sodipodi:namedview><path
     sodipodi:nodetypes="sssss"
     inkscape:connector-curvature="0"
     id="path4229"
     d="m 2.9090907,12.363636 c 0,4.81994 3.9073331,8.727271 8.7272783,8.727271 4.819948,0 8.727266,-3.907331 8.727266,-8.727271 0,-4.819938 -3.907318,-8.7272718 -8.727266,-8.7272718 -4.8199452,0 -8.7272783,3.9073338 -8.7272783,8.7272718 z"
     style="color:#000000;display:inline;overflow:visible;visibility:visible;opacity:0.02000002;fill:#000000;fill-opacity:1;fill-rule:nonzero;stroke:#000000;stroke-width:2.90909076;stroke-miterlimit:4;stroke-dasharray:none;stroke-opacity:1;marker:none;enable-background:new" /><path
     style="color:#000000;display:inline;overflow:visible;visibility:visible;opacity:0.1;fill:#000000;fill-opacity:1;fill-rule:nonzero;stroke:#000000;stroke-width:1.45454538;stroke-miterlimit:4;stroke-dasharray:none;stroke-opacity:1;marker:none;enable-background:new"
     d="m 2.9090907,12.363636 c 0,4.81994 3.9073331,8.727271 8.7272783,8.727271 4.819948,0 8.727266,-3.907331 8.727266,-8.727271 0,-4.819938 -3.907318,-8.7272718 -8.727266,-8.7272718 -4.8199452,0 -8.7272783,3.9073338 -8.7272783,8.7272718 z"
     id="path4156"
     inkscape:connector-curvature="0"
     sodipodi:nodetypes="sssss" /><path
     sodipodi:nodetypes="sssss"
     inkscape:connector-curvature="0"
     id="path4154"
     d="m 2.9090907,12.363636 c 0,4.81994 3.9073331,8.727271 8.7272783,8.727271 4.819948,0 8.727266,-3.907331 8.727266,-8.727271 0,-4.819938 -3.907318,-8.7272718 -8.727266,-8.7272718 -4.8199452,0 -8.7272783,3.9073338 -8.7272783,8.7272718 z"
     style="color:#000000;display:inline;overflow:visible;visibility:visible;opacity:0.3;fill:#000000;fill-opacity:1;fill-rule:nonzero;stroke:none;stroke-width:2;marker:none;enable-background:new" /><path
     style="color:#000000;display:inline;overflow:visible;visibility:visible;opacity:1;fill:#d63f5b;fill-opacity:1;fill-rule:nonzero;stroke:none;stroke-width:2;marker:none;enable-background:new"
     d="m 2.9090907,11.636363 c 0,4.81994 3.9073331,8.727271 8.7272783,8.727271 4.819948,0 8.727266,-3.907331 8.727266,-8.727271 0,-4.8199377 -3.907318,-8.7272715 -8.727266,-8.7272715 -4.8199452,0 -8.7272783,3.9073338 -8.7272783,8.7272715 z"
     id="path5757"
     inkscape:connector-curvature="0"
     sodipodi:nodetypes="sssss" /><g
     transform="translate(-0.72726129,1.4545442)"
     id="g3770"
     style="fill:none"><path
       style="color:#000000;display:inline;overflow:visible;visibility:visible;opacity:0.8;fill:none;fill-opacity:1;fill-rule:nonzero;stroke:none;stroke-width:2;marker:none;enable-background:new"
       d="m 3.6363636,10.181818 c 0,4.81994 3.9073336,8.727272 8.7272734,8.727272 4.819941,0 8.727272,-3.907332 8.727272,-8.727272 0,-4.8199381 -3.907331,-8.7272726 -8.727272,-8.7272726 -4.8199398,0 -8.7272734,3.9073345 -8.7272734,8.7272726 z"
       id="path3772"
       inkscape:connector-curvature="0"
       sodipodi:nodetypes="sssss" /><path
       style="color:#000000;display:inline;overflow:visible;visibility:visible;fill:none;fill-opacity:1;fill-rule:nonzero;stroke:none;stroke-width:2;marker:none;enable-background:new"
       d="m 9.4545455,13.093068 0.7272725,0 c 0.200829,0 0.391114,-0.07293 0.522727,-0.204545 l 1.659092,-1.659091 1.65909,1.659091 c 0.131616,0.13161 0.321899,0.204545 0.522728,0.204545 l 0.727272,0 0,-0.727272 c 0,-0.200831 -0.07293,-0.391117 -0.204545,-0.522728 l -1.659091,-1.65909 1.659091,-1.6590912 c 0.131614,-0.13161 0.204545,-0.321897 0.204545,-0.522727 l 0,-0.7272726 -0.727272,0 c -0.200829,0 -0.391112,0.07293 -0.522728,0.2045455 l -1.65909,1.659091 -1.659092,-1.659091 C 10.572932,7.3478225 10.38088,7.248304 10.181818,7.2748872 l -0.7272725,0 0,0.7272726 c 0,0.20083 0.07293,0.391117 0.2045455,0.522727 l 1.659091,1.6590912 -1.659091,1.65909 c -0.1316153,0.131611 -0.2045455,0.321897 -0.2045455,0.522728 z"
       id="path3774"
       inkscape:connector-curvature="0"
       sodipodi:nodetypes="cssccscscccscsscsccscccsc" /></g><path
     inkscape:connector-curvature="0"
     style="color:#000000;display:inline;overflow:visible;visibility:visible;opacity:0.1;fill:#ffffff;fill-opacity:1;fill-rule:nonzero;stroke:none;stroke-width:2;marker:none;enable-background:new"
     d="m 11.636369,2.9090887 c -4.8199445,0 -8.7272783,3.9073344 -8.7272783,8.7272723 0,0.1228 0.01344,0.24207 0.01847,0.363636 0.1921307,-4.6499268 4.011667,-8.3636355 8.7088123,-8.3636355 4.697149,0 8.516672,3.7137087 8.708803,8.3636355 0.005,-0.121566 0.01847,-0.240836 0.01847,-0.363636 0,-4.8199379 -3.90732,-8.7272723 -8.727269,-8.7272723 z"
     id="path4158" /><path
     sodipodi:nodetypes="ccccccccccccccccccccccccc"
     inkscape:connector-curvature="0"
     id="path4188"
     d="m 8.7045459,7.9999974 c -0.4016614,0 -0.727272,0.325611 -0.727272,0.7272723 2.91e-5,0.192874 0.076671,0.377838 0.2130683,0.514205 l 2.3948868,2.3948863 -2.3877849,2.387784 -0.00713,0.0071 c -0.1363716,0.136342 -0.2130138,0.321306 -0.2130429,0.514179 0,0.401662 0.3256106,0.727273 0.727272,0.727273 0.1928734,-2.9e-5 0.3778371,-0.07667 0.5142045,-0.213068 l 2.3948923,-2.394887 2.387791,2.387785 0.0071,0.0071 c 0.136344,0.136372 0.321307,0.213014 0.514181,0.213043 0.401661,0 0.727273,-0.325611 0.727273,-0.727273 -2.9e-5,-0.192873 -0.07667,-0.377837 -0.213069,-0.514204 l -2.394892,-2.394886 2.38779,-2.3877843 0.0071,-0.0071 c 0.13637,-0.136342 0.213014,-0.321306 0.213043,-0.514179 0,-0.4016623 -0.325612,-0.7272733 -0.727273,-0.7272733 -0.192874,2.9e-5 -0.377837,0.07667 -0.514205,0.213069 l -2.394837,2.3949126 -2.3877891,-2.3877846 -0.00713,-0.0071 C 9.082383,8.0766684 8.8974193,8.0000264 8.7045459,7.9999974 Z"
     style="color:#000000;font-style:normal;font-variant:normal;font-weight:normal;font-stretch:normal;font-size:medium;line-height:normal;font-family:sans-serif;text-indent:0;text-align:start;text-decoration:none;text-decoration-line:none;text-decoration-style:solid;text-decoration-color:#000000;letter-spacing:normal;word-spacing:normal;text-transform:none;direction:ltr;block-progression:tb;writing-mode:lr-tb;baseline-shift:baseline;text-anchor:start;white-space:normal;clip-rule:nonzero;display:inline;overflow:visible;visibility:visible;opacity:0.25;isolation:auto;mix-blend-mode:normal;color-interpolation:sRGB;color-interpolation-filters:linearRGB;solid-color:#000000;solid-opacity:1;fill:#000000;fill-opacity:1;fill-rule:evenodd;stroke:none;stroke-width:1.45454538;stroke-linecap:butt;stroke-linejoin:miter;stroke-miterlimit:4;stroke-dasharray:none;stroke-dashoffset:0;stroke-opacity:1;color-rendering:auto;image-rendering:auto;shape-rendering:auto;text-rendering:auto;enable-background:accumulate;filter:url(#filter4210)" /><path
     style="color:#000000;font-style:normal;font-variant:normal;font-weight:normal;font-stretch:normal;font-size:medium;line-height:normal;font-family:sans-serif;text-indent:0;text-align:start;text-decoration:none;text-decoration-line:none;text-decoration-style:solid;text-decoration-color:#000000;letter-spacing:normal;word-spacing:normal;text-transform:none;direction:ltr;block-progression:tb;writing-mode:lr-tb;baseline-shift:baseline;text-anchor:start;white-space:normal;clip-rule:nonzero;display:inline;overflow:visible;visibility:visible;opacity:1;isolation:auto;mix-blend-mode:normal;color-interpolation:sRGB;color-interpolation-filters:linearRGB;solid-color:#000000;solid-opacity:1;fill:#fefefe;fill-opacity:1;fill-rule:evenodd;stroke:none;stroke-width:1.45454538;stroke-linecap:butt;stroke-linejoin:miter;stroke-miterlimit:4;stroke-dasharray:none;stroke-dashoffset:0;stroke-opacity:1;color-rendering:auto;image-rendering:auto;shape-rendering:auto;text-rendering:auto;enable-background:accumulate"
     d="m 8.7272732,7.9999974 c -0.4016614,0 -0.727272,0.325611 -0.727272,0.7272723 2.91e-5,0.192874 0.076671,0.377838 0.2130683,0.514205 l 2.3948865,2.3948863 -2.3877846,2.387784 -0.00713,0.0071 c -0.1363716,0.136342 -0.2130138,0.321306 -0.2130429,0.514179 0,0.401662 0.3256106,0.727273 0.727272,0.727273 0.1928734,-2.9e-5 0.3778371,-0.07667 0.5142045,-0.213068 l 2.394892,-2.394887 2.387791,2.387785 0.0071,0.0071 c 0.136344,0.136372 0.321307,0.213014 0.514181,0.213043 0.401661,0 0.727273,-0.325611 0.727273,-0.727273 -2.9e-5,-0.192873 -0.07667,-0.377837 -0.213069,-0.514204 l -2.394892,-2.394886 2.38779,-2.3877843 0.0071,-0.0071 c 0.13637,-0.136342 0.213014,-0.321306 0.213043,-0.514179 0,-0.4016623 -0.325612,-0.7272733 -0.727273,-0.7272733 -0.192874,2.9e-5 -0.377837,0.07667 -0.514205,0.213069 l -2.394837,2.3949126 -2.3877888,-2.3877846 -0.00713,-0.0071 C 9.1051103,8.0766684 8.9201466,8.0000264 8.7272732,7.9999974 Z"
     id="path4165"
     inkscape:connector-curvature="0"
     sodipodi:nodetypes="ccccccccccccccccccccccccc" /><path
     sodipodi:nodetypes="ccccccccccccccccccccccccc"
     inkscape:connector-curvature="0"
     id="path4186"
     d="m 8.7272732,7.9999975 c -0.4016614,0 -0.727272,0.3256108 -0.727272,0.7272726 2.91e-5,0.1928735 0.076671,0.3778371 0.2130683,0.5142043 l 2.3948865,2.3948866 -2.3877846,2.387784 -0.00713,0.0071 c -0.1363716,0.136342 -0.2130138,0.321306 -0.2130429,0.514179 0,0.401662 0.3256106,0.727273 0.727272,0.727273 0.1928734,-2.9e-5 0.3778371,-0.07667 0.5142045,-0.213068 l 2.394892,-2.394887 2.387791,2.387785 0.0071,0.0071 c 0.136344,0.136372 0.321307,0.213014 0.514181,0.213043 0.401661,0 0.727273,-0.325611 0.727273,-0.727273 -2.9e-5,-0.192873 -0.07667,-0.377837 -0.213069,-0.514204 l -2.394892,-2.394886 2.38779,-2.387784 0.0071,-0.00713 c 0.13637,-0.1363425 0.213014,-0.3213061 0.213043,-0.5141796 0,-0.4016618 -0.325612,-0.7272726 -0.727273,-0.7272726 -0.192874,2.9e-5 -0.377837,0.076671 -0.514205,0.2130683 L 11.636369,10.607952 9.2485802,8.2201676 9.2414502,8.2130376 C 9.1051103,8.0766687 8.9201466,8.0000265 8.7272732,7.9999975 Z"
     style="color:#000000;font-style:normal;font-variant:normal;font-weight:normal;font-stretch:normal;font-size:medium;line-height:normal;font-family:sans-serif;text-indent:0;text-align:start;text-decoration:none;text-decoration-line:none;text-decoration-style:solid;text-decoration-color:#000000;letter-spacing:normal;word-spacing:normal;text-transform:none;direction:ltr;block-progression:tb;writing-mode:lr-tb;baseline-shift:baseline;text-anchor:start;white-space:normal;clip-rule:nonzero;display:inline;overflow:visible;visibility:visible;opacity:1;isolation:auto;mix-blend-mode:normal;color-interpolation:sRGB;color-interpolation-filters:linearRGB;solid-color:#000000;solid-opacity:1;fill:#fefefe;fill-opacity:0;fill-rule:evenodd;stroke:none;stroke-width:1.45454538;stroke-linecap:butt;stroke-linejoin:miter;stroke-miterlimit:4;stroke-dasharray:none;stroke-dashoffset:0;stroke-opacity:1;color-rendering:auto;image-rendering:auto;shape-rendering:auto;text-rendering:auto;enable-background:accumulate" /></svg>