<?xml version="1.0" encoding="UTF-8" standalone="no"?>
<!-- Created with Inkscape (http://www.inkscape.org/) -->

<svg
   xmlns:dc="http://purl.org/dc/elements/1.1/"
   xmlns:cc="http://creativecommons.org/ns#"
   xmlns:rdf="http://www.w3.org/1999/02/22-rdf-syntax-ns#"
   xmlns:svg="http://www.w3.org/2000/svg"
   xmlns="http://www.w3.org/2000/svg"
   xmlns:sodipodi="http://sodipodi.sourceforge.net/DTD/sodipodi-0.dtd"
   xmlns:inkscape="http://www.inkscape.org/namespaces/inkscape"
   id="svg4486"
   height="19"
   viewBox="0 0 19 19"
   width="19"
   version="1.1"
   inkscape:version="0.48.4 r9939"
   sodipodi:docname="unmaximize_unfocused_prelight.svg">
  <sodipodi:namedview
     pagecolor="#3b3b3b"
     bordercolor="#666666"
     borderopacity="1"
     objecttolerance="10"
     gridtolerance="10"
     guidetolerance="10"
     inkscape:pageopacity="1"
     inkscape:pageshadow="2"
     inkscape:window-width="1048"
     inkscape:window-height="659"
     id="namedview12"
     showgrid="false"
     inkscape:zoom="8.424238"
     inkscape:cx="-28.875335"
     inkscape:cy="24.042174"
     inkscape:window-x="10"
     inkscape:window-y="34"
     inkscape:window-maximized="0"
     inkscape:current-layer="svg4486" />
  <defs
     id="defs4488">
    <filter
       id="filter4405"
       style="color-interpolation-filters:sRGB"
       height="1.24"
       width="1.24"
       y="-.12"
       x="-.12">
      <feGaussianBlur
         id="feGaussianBlur4407"
         stdDeviation="0.75" />
    </filter>
  </defs>
  <metadata
     id="metadata4491">
    <rdf:RDF>
      <cc:Work
         rdf:about="">
        <dc:format>image/svg+xml</dc:format>
        <dc:type
           rdf:resource="http://purl.org/dc/dcmitype/StillImage" />
        <dc:title />
      </cc:Work>
    </rdf:RDF>
  </metadata>
  <path
     sodipodi:type="arc"
     style="fill:#7d92b3;fill-opacity:1"
     id="path3774"
     sodipodi:cx="-11.439947"
     sodipodi:cy="10.936503"
     sodipodi:rx="5.0868893"
     sodipodi:ry="5.0868893"
     d="m -6.3530579,10.936503 a 5.0868893,5.0868893 0 1 1 -10.1737781,0 5.0868893,5.0868893 0 1 1 10.1737781,0 z"
     transform="matrix(1.4743785,0,0,1.4743785,26.366812,-6.6245455)" />
  <g
     id="g2997"
     transform="translate(-11.510802,-9.321942)">
    <path
       id="path2996"
       d="m 21.010803,10.821942 c -4.412871,0 -8.000001,3.58713 -8.000001,8.000001 0,4.412869 3.58713,7.999999 8.000001,7.999999 4.412869,0 7.999999,-3.58713 7.999999,-7.999999 0,-4.412871 -3.58713,-8.000001 -7.999999,-8.000001 z m -0.297675,3.75814 3.386046,0 c 0.624928,0 1.153489,0.52856 1.153489,1.153488 l 0,3.386047 c 0,0.624929 -0.528561,1.116279 -1.153489,1.116279 l -0.744186,0 0,0.744186 c 0,0.624929 -0.49135,1.116279 -1.116278,1.116279 l -3.386047,0 c -0.624928,0 -1.116279,-0.49135 -1.116279,-1.116279 l 0,-3.386047 c 0,-0.624928 0.491351,-1.116279 1.116279,-1.116279 l 0.744186,0 0,-0.744186 c 0,-0.624928 0.491351,-1.153488 1.116279,-1.153488 z"
       style="fill:#9cb7e0;fill-opacity:1;stroke:none"
       inkscape:connector-curvature="0" />
    <path
       id="rect3766-2-8"
       d="m 20.737474,14.579964 3.384086,0 c 0.624929,0 1.128029,0.503101 1.128029,1.128029 l 0,3.384089 c 0,0.624927 -0.5031,1.128028 -1.128029,1.128028 l -3.384086,0 c -0.62493,0 -1.12803,-0.503101 -1.12803,-1.128028 l 0,-3.384088 c 0,-0.624929 0.5031,-1.12803 1.12803,-1.12803 z"
       style="opacity:0.5;fill:#ffffff;fill-opacity:1;stroke:none"
       inkscape:connector-curvature="0" />
  </g>
</svg>
